#tb 0: 1/44100
#media_type 0: audio
#codec_id 0: pcm_s16le
#sample_rate 0: 44100
#channel_layout_name 0: stereo
0,       1025,       1025,     1023,     4092, 0x78560a4c
0,       2048,       2048,     1024,     4096, 0xc477fa99
0,       3072,       3072,     1024,     4096, 0x3bc0f14f
0,       4096,       4096,      315,     1260, 0xe4b26b50
